<?xml version="1.0" encoding="UTF-8"?>
<svg version="1.1" xmlns="http://www.w3.org/2000/svg" width="647" height="385">
<path d="M0 0 C0.8108606 -0.00014603 1.62172119 -0.00029205 2.45715332 -0.0004425 C5.10289304 0.00024698 7.74855988 0.00799357 10.39428711 0.01586914 C12.24230409 0.01773676 14.09032158 0.01915904 15.93833923 0.02015686 C20.77649326 0.02395499 25.61461674 0.03376189 30.45275879 0.04486084 C35.4000609 0.05513339 40.347368 0.05966695 45.29467773 0.06469727 C54.98284211 0.07538684 64.67098394 0.09243041 74.35913086 0.11352539 C76.04713744 3.48953856 74.41846933 7.06802586 73.59350586 10.60961914 C73.39944153 11.47176529 73.2053772 12.33391144 73.00543213 13.22218323 C72.37983012 15.99998298 71.74546678 18.77566626 71.10913086 21.55102539 C68.53875051 32.77153067 66.12779093 43.93238544 64.42901611 55.32090759 C63.26692389 63.00814666 61.61898009 70.5438682 59.85913086 78.11352539 C59.5604331 79.4272092 59.26225665 80.74101164 58.96459961 82.05493164 C53.92108838 104.07307978 53.92108838 104.07307978 48.35913086 113.11352539 C47.80225586 114.12415039 47.24538086 115.13477539 46.67163086 116.17602539 C46.23850586 116.81540039 45.80538086 117.45477539 45.35913086 118.11352539 C44.69913086 118.11352539 44.03913086 118.11352539 43.35913086 118.11352539 C43.11936523 118.69231445 42.87959961 119.27110352 42.63256836 119.86743164 C38.01229068 128.01669442 27.88988309 132.38463386 19.35913086 135.11352539 C13.18354594 136.61539178 6.67542194 136.21802285 0.35913086 136.11352539 C-1.20034895 131.43508597 -0.67409955 126.81595362 -0.51586914 121.92602539 C-0.50555664 120.90959961 -0.49524414 119.89317383 -0.48461914 118.84594727 C-0.26170036 112.20553968 0.6018679 107.01506228 5.35913086 102.11352539 C7.75442376 100.48386219 9.82852409 99.70275571 12.60913086 98.67602539 C13.86481903 98.1994231 15.12005283 97.72162141 16.37475586 97.24243164 C17.35959961 96.86989258 18.34444336 96.49735352 19.35913086 96.11352539 C20.86777141 94.60488484 20.86319966 93.0031433 21.26147461 90.92211914 C21.42969727 90.0590918 21.59791992 89.19606445 21.77124023 88.30688477 C21.94461914 87.39745117 22.11799805 86.48801758 22.29663086 85.55102539 C24.22660544 75.50488395 24.22660544 75.50488395 25.48803711 70.77368164 C26.22206547 67.6894459 26.55527173 65.25177936 26.35913086 62.11352539 C25.36333008 62.83668945 25.36333008 62.83668945 24.34741211 63.57446289 C23.4644043 64.20610352 22.58139648 64.83774414 21.67163086 65.48852539 C20.80151367 66.11500977 19.93139648 66.74149414 19.03491211 67.38696289 C16.52316134 69.00768382 14.16613899 70.11210627 11.35913086 71.11352539 C11.35913086 71.77352539 11.35913086 72.43352539 11.35913086 73.11352539 C9.74975586 74.69946289 9.74975586 74.69946289 7.60913086 76.48852539 C5.29009384 78.45110266 3.10693802 80.37235489 0.98413086 82.55102539 C-0.64086914 84.11352539 -0.64086914 84.11352539 -2.64086914 84.11352539 C-2.91286133 84.68071289 -3.18485352 85.24790039 -3.46508789 85.83227539 C-4.67758754 88.1847664 -6.04022996 90.37636574 -7.45336914 92.61352539 C-16.18429746 107.03667658 -18.44748567 120.88541791 -16.17993164 137.48852539 C-14.32644121 144.98971021 -10.66412773 152.18748819 -5.95336914 158.30493164 C-4.64086914 160.11352539 -4.64086914 160.11352539 -4.64086914 162.11352539 C-4.05821289 162.38165039 -3.47555664 162.64977539 -2.87524414 162.92602539 C-0.61300314 164.1283353 1.16489404 165.45178452 3.10913086 167.11352539 C3.72272461 167.62915039 4.33631836 168.14477539 4.96850586 168.67602539 C6.35913086 170.11352539 6.35913086 170.11352539 6.35913086 172.11352539 C7.08100586 172.38165039 7.80288086 172.64977539 8.54663086 172.92602539 C11.35913086 174.11352539 11.35913086 174.11352539 13.60913086 175.48852539 C20.2156301 179.39236585 26.81674155 181.75839161 34.35913086 183.11352539 C34.35913086 184.43352539 34.35913086 185.75352539 34.35913086 187.11352539 C15.51600896 193.93603505 -3.20333033 195.56264125 -22.64086914 190.11352539 C-23.70305664 189.84668945 -24.76524414 189.57985352 -25.85961914 189.30493164 C-37.7197096 186.06643607 -48.71585989 180.62095914 -57.59399414 172.04321289 C-59.70717134 170.05101912 -61.91965432 168.38451068 -64.26586914 166.67602539 C-68.95798971 163.09756694 -72.19714163 158.85881921 -75.64086914 154.11352539 C-76.34211914 153.30915039 -77.04336914 152.50477539 -77.76586914 151.67602539 C-91.94480664 132.29814414 -96.32655183 105.35823091 -92.98461914 82.02758789 C-90.39505634 66.62415397 -85.64015821 51.3348787 -75.64086914 39.11352539 C-74.87000977 38.12094727 -74.09915039 37.12836914 -73.30493164 36.10571289 C-67.11330838 28.27100514 -67.11330838 28.27100514 -63.64086914 27.11352539 C-63.37274414 26.51540039 -63.10461914 25.91727539 -62.82836914 25.30102539 C-61.46563734 22.79072997 -59.92282745 21.78266638 -57.52368164 20.30493164 C-55.27577022 18.88249807 -53.16283583 17.30905569 -51.01586914 15.73852539 C-43.03506624 10.18046623 -34.69076909 6.25742655 -25.45336914 3.30102539 C-24.49213135 2.99044189 -24.49213135 2.99044189 -23.51147461 2.67358398 C-15.80848752 0.34047715 -8.00482517 -0.038695 0 0 Z M-38.64086914 50.11352539 C-38.64086914 50.77352539 -38.64086914 51.43352539 -38.64086914 52.11352539 C-39.22739258 52.36360352 -39.81391602 52.61368164 -40.41821289 52.87133789 C-42.93502483 54.27792172 -44.34953115 55.79046245 -46.20336914 57.98852539 C-47.07155273 59.0055957 -47.07155273 59.0055957 -47.95727539 60.04321289 C-51.97060487 64.97839763 -53.85316718 69.03533874 -55.64086914 75.11352539 C-55.92317383 75.97848633 -56.20547852 76.84344727 -56.49633789 77.73461914 C-60.88282431 92.5827727 -59.50959763 107.90099596 -53.64086914 122.11352539 C-51.45669571 118.83726524 -51.23091779 117.14954027 -50.76586914 113.30102539 C-47.50707248 90.59049669 -35.82742957 65.78643577 -17.29711914 51.32055664 C-16.75055664 50.92223633 -16.20399414 50.52391602 -15.64086914 50.11352539 C-15.05305664 49.66364258 -14.46524414 49.21375977 -13.85961914 48.75024414 C-11.8007181 47.18497306 -9.72284875 45.64798272 -7.64086914 44.11352539 C-5.47166708 42.51263826 -3.30512699 40.90855073 -1.14086914 39.30102539 C-0.09930664 38.53145508 0.94225586 37.76188477 2.01538086 36.96899414 C2.78881836 36.35668945 3.56225586 35.74438477 4.35913086 35.11352539 C4.35913086 34.78352539 4.35913086 34.45352539 4.35913086 34.11352539 C-11.66402222 33.50311956 -26.4597144 40.22349694 -38.64086914 50.11352539 Z " fill="#03B5CC" transform="translate(127.640869140625,105.886474609375)"/>
<path d="M0 0 C1.62215675 0.00333092 1.62215675 0.00333092 3.27708435 0.00672913 C4.49827469 0.00680466 5.71946503 0.00688019 6.97766113 0.00695801 C8.32022644 0.0120654 9.66279134 0.01728141 11.00535583 0.02259827 C12.37156116 0.02446252 13.73776716 0.02588639 15.10397339 0.02688599 C18.70596654 0.03071058 22.30791959 0.04054035 25.90989685 0.05158997 C29.58298703 0.06180536 33.25608368 0.06638388 36.92918396 0.07142639 C44.14079293 0.08216268 51.35236054 0.09975899 58.56394958 0.12025452 C58.56394958 6.72025452 58.56394958 13.32025452 58.56394958 20.12025452 C45.03394958 20.12025452 31.50394958 20.12025452 17.56394958 20.12025452 C17.56394958 26.39025452 17.56394958 32.66025452 17.56394958 39.12025452 C20.15109802 39.10865295 22.73824646 39.09705139 25.40379333 39.08509827 C27.89915341 39.0773079 30.39451216 39.07123102 32.88987732 39.06532288 C34.62914126 39.06028247 36.36840095 39.05345021 38.10765076 39.04481506 C40.60220895 39.0327366 43.09671132 39.02702343 45.59129333 39.02259827 C46.3735881 39.01743698 47.15588287 39.0122757 47.96188354 39.00695801 C49.82962073 39.00676226 51.69724163 39.05825757 53.56394958 39.12025452 C55.12001709 40.67632202 54.69365727 42.17982823 54.69676208 44.33900452 C54.69869568 45.6132428 54.69869568 45.6132428 54.70066833 46.91322327 C54.69680115 47.80654358 54.69293396 48.69986389 54.68894958 49.62025452 C54.69475037 50.96023499 54.69475037 50.96023499 54.70066833 52.32728577 C54.69937927 53.17677795 54.69809021 54.02627014 54.69676208 54.90150452 C54.69563416 55.68589905 54.69450623 56.47029358 54.69334412 57.27845764 C54.56394958 59.12025452 54.56394958 59.12025452 53.56394958 60.12025452 C50.89768928 60.20880612 48.25747844 60.23550125 45.59129333 60.21791077 C44.79365067 60.21649582 43.996008 60.21508087 43.17419434 60.21362305 C40.61657523 60.20800768 38.05904241 60.19545264 35.50144958 60.18275452 C33.77163314 60.17774149 32.04181532 60.17317824 30.31199646 60.16908264 C26.0625872 60.15888243 21.81336542 60.13931019 17.56394958 60.12025452 C17.56394958 71.67025452 17.56394958 83.22025452 17.56394958 95.12025452 C10.63394958 95.12025452 3.70394958 95.12025452 -3.43605042 95.12025452 C-3.45859988 82.88144794 -3.47696459 70.64265505 -3.48786259 58.40383244 C-3.4930918 52.7214894 -3.50019015 47.03916125 -3.51148987 41.35682678 C-3.52231738 35.87796316 -3.52832696 30.3991139 -3.53092766 24.9202404 C-3.53278215 22.82495841 -3.53640323 20.72967724 -3.54178047 18.63440132 C-3.5489891 15.71047868 -3.55004143 12.78661618 -3.54957581 9.86268616 C-3.55317108 8.98731201 -3.55676636 8.11193787 -3.56047058 7.21003723 C-3.54826493 0.17515848 -3.54826493 0.17515848 0 0 Z " fill="#0D7890" transform="translate(247.43605041503906,152.87974548339844)"/>
<path d="M0 0 C7.65190359 6.46312571 10.56635481 13.95630816 12.125 23.75 C12.37406629 27.43618111 12.48412635 31.06895494 12.125 34.75 C11.125 35.75 11.125 35.75 9.25840759 35.87025452 C8.44344315 35.86803391 7.6284787 35.86581329 6.78881836 35.86352539 C5.40749977 35.86341209 5.40749977 35.86341209 3.99827576 35.86329651 C2.99724319 35.85813522 1.99621063 35.85297394 0.96484375 35.84765625 C-0.05475937 35.8462413 -1.07436249 35.84482635 -2.12486267 35.84336853 C-5.39577107 35.83775097 -8.66661213 35.8251955 -11.9375 35.8125 C-14.14908756 35.80748726 -16.36067618 35.80292396 -18.57226562 35.79882812 C-24.00653357 35.78777584 -29.44076197 35.77102063 -34.875 35.75 C-32.59827793 40.80837076 -32.59827793 40.80837076 -28.875 44.75 C-21.88348998 47.03009312 -15.05493431 46.90252742 -7.875 45.75 C-7.875 45.09 -7.875 44.43 -7.875 43.75 C-6.225 43.09 -4.575 42.43 -2.875 41.75 C-1.36289968 43.65812659 0.13439625 45.57519636 1.625 47.5 C2.05425781 48.03882813 2.48351562 48.57765625 2.92578125 49.1328125 C5.42458927 52.38522928 6.125 53.50396057 6.125 57.75 C4.04370896 58.73350025 1.95988641 59.71164458 -0.125 60.6875 C-1.28515625 61.23277344 -2.4453125 61.77804688 -3.640625 62.33984375 C-12.63765299 66.26246103 -24.63586819 66.2734456 -33.9375 63.125 C-44.09982892 58.70592667 -50.62622119 51.88153721 -54.75 41.5625 C-57.78448678 31.23079501 -56.45674534 20.19840224 -51.84375 10.60546875 C-46.5732335 1.29303587 -38.47841037 -3.91048912 -28.4375 -7 C-17.63115847 -8.05427722 -8.96647622 -6.49809305 0 0 Z M-31.875 14.75 C-34.25323307 17.9585483 -34.25323307 17.9585483 -34.875 21.75 C-25.965 21.75 -17.055 21.75 -7.875 21.75 C-9.10732015 15.58839926 -10.08336629 15.27038395 -14.875 11.75 C-20.82799173 8.77350413 -27.10099719 10.54433086 -31.875 14.75 Z " fill="#08758E" transform="translate(520.875,184.25)"/>
<path d="M0 0 C0.928125 0.5775 1.85625 1.155 2.8125 1.75 C7.92930289 7.01299726 9.13191749 14.94793012 9.11352539 22.06567383 C9.11341209 23.53663261 9.11341209 23.53663261 9.11329651 25.03730774 C9.10813522 26.0833165 9.10297394 27.12932526 9.09765625 28.20703125 C9.0962413 29.28756271 9.09482635 30.36809418 9.09336853 31.48136902 C9.0877808 34.92510776 9.0752305 38.36878098 9.0625 41.8125 C9.05748342 44.15038968 9.05292079 46.48828039 9.04882812 48.82617188 C9.03781538 54.55080353 9.02108941 60.27539708 9 66 C5.68751813 66.02888146 2.37506833 66.04675799 -0.9375 66.0625 C-1.88302734 66.07087891 -2.82855469 66.07925781 -3.80273438 66.08789062 C-5.15141602 66.09272461 -5.15141602 66.09272461 -6.52734375 66.09765625 C-7.35999756 66.10289307 -8.19265137 66.10812988 -9.05053711 66.11352539 C-11 66 -11 66 -12 65 C-12.10653984 63.60414672 -12.14617764 62.20308837 -12.15771484 60.80322266 C-12.16797699 59.91204742 -12.17823914 59.02087219 -12.18881226 58.10269165 C-12.19611359 57.13294403 -12.20341492 56.16319641 -12.2109375 55.1640625 C-12.23900489 53.13020027 -12.26766935 51.0963462 -12.296875 49.0625 C-12.33817856 45.8408225 -12.37504658 42.61929768 -12.40136719 39.39746094 C-12.42890925 36.29850362 -12.47478216 33.20025045 -12.5234375 30.1015625 C-12.52669037 29.13586334 -12.52994324 28.17016418 -12.53329468 27.17520142 C-12.54986115 26.27772186 -12.56642761 25.38024231 -12.58349609 24.45556641 C-12.59158295 23.66582428 -12.5996698 22.87608215 -12.60800171 22.06240845 C-13.10275918 19.45935631 -13.9092764 18.58980716 -16 17 C-21.59844811 15.5729446 -25.70104884 15.93430717 -31 18 C-33.4220602 23.00728973 -33.32580434 28.07488517 -33.37890625 33.51953125 C-33.39590073 34.41870773 -33.4128952 35.31788422 -33.43040466 36.24430847 C-33.48330292 39.10030208 -33.52375612 41.95628208 -33.5625 44.8125 C-33.60640535 47.6865009 -33.65301461 50.56038903 -33.70530701 53.43424988 C-33.7373146 55.21924829 -33.76418886 57.00434729 -33.78553772 58.789505 C-33.88819482 64.88819482 -33.88819482 64.88819482 -35 66 C-36.40348735 66.09860131 -37.81180477 66.13078937 -39.21875 66.1328125 C-40.49298828 66.13474609 -40.49298828 66.13474609 -41.79296875 66.13671875 C-42.68628906 66.13285156 -43.57960938 66.12898438 -44.5 66.125 C-45.39332031 66.12886719 -46.28664063 66.13273437 -47.20703125 66.13671875 C-48.05652344 66.13542969 -48.90601563 66.13414062 -49.78125 66.1328125 C-50.56564453 66.13168457 -51.35003906 66.13055664 -52.15820312 66.12939453 C-54 66 -54 66 -55 65 C-55.09417773 62.91380978 -55.11742878 60.82439523 -55.11352539 58.73608398 C-55.11367142 58.08244873 -55.11381744 57.42881348 -55.1139679 56.75537109 C-55.11326883 54.58557872 -55.10547678 52.41587121 -55.09765625 50.24609375 C-55.09579205 48.74536689 -55.09436816 47.24463943 -55.09336853 45.74391174 C-55.08954352 41.78681774 -55.0797134 37.82976022 -55.06866455 33.87268066 C-55.05845006 29.83765151 -55.05387083 25.80261647 -55.04882812 21.76757812 C-55.03809111 13.84503531 -55.0210149 5.92252219 -55 -2 C-49.84531805 -4.57734098 -42.23331781 -4.66133189 -36.75 -3.0625 C-35.8425 -2.711875 -34.935 -2.36125 -34 -2 C-33.67 -0.35 -33.34 1.3 -33 3 C-32.49210937 2.59007812 -31.98421875 2.18015625 -31.4609375 1.7578125 C-21.31950365 -6.18061325 -11.09537502 -7.05150257 0 0 Z " fill="#127C94" transform="translate(450,182)"/>
<path d="M0 0 C4.17325157 3.79386506 7.21002449 8.01854324 10.3515625 12.6953125 C11.77907321 14.69112132 13.20662864 16.33705565 15 18 C17.48889248 14.43258745 19.54955729 11.10958767 21 7 C21.66 7 22.32 7 23 7 C23.28875 6.195625 23.5775 5.39125 23.875 4.5625 C25 2 25 2 27 1 C28.6696807 0.98385116 30.34028286 1.03484222 32.0078125 1.12109375 C32.99394531 1.16943359 33.98007812 1.21777344 34.99609375 1.26757812 C36.02863281 1.32365234 37.06117188 1.37972656 38.125 1.4375 C39.16527344 1.48970703 40.20554687 1.54191406 41.27734375 1.59570312 C43.85185116 1.72560946 46.42599296 1.86058252 49 2 C47.47478371 6.02950155 45.74318605 8.66369265 43 12 C41.82322949 13.65954815 40.65749994 15.32695404 39.5 17 C37.66842678 19.64387008 35.84381143 22.19188882 33.8125 24.6875 C29.66156882 29.86532779 29.66156882 29.86532779 28 36 C29.13638752 37.86544653 30.33531624 39.69298938 31.5625 41.5 C32.66078125 43.12035156 32.66078125 43.12035156 33.78125 44.7734375 C37.47168993 50.14016881 41.19235333 55.48347229 44.9921875 60.7734375 C45.63414062 61.67320312 46.27609375 62.57296875 46.9375 63.5 C47.52402344 64.3146875 48.11054687 65.129375 48.71484375 65.96875 C50 68 50 68 50 70 C46.31387336 70.26319835 42.63017002 70.42176303 38.9375 70.5625 C37.89916016 70.63791016 36.86082031 70.71332031 35.79101562 70.79101562 C28.19153833 71.00814355 28.19153833 71.00814355 24.79516602 68.13452148 C22.98186356 65.83744928 21.45828523 63.5350158 20 61 C19.12021484 59.59041016 19.12021484 59.59041016 18.22265625 58.15234375 C17.64837891 57.05599609 17.64837891 57.05599609 17.0625 55.9375 C16.66160156 55.18339844 16.26070312 54.42929688 15.84765625 53.65234375 C15.56792969 53.10707031 15.28820312 52.56179687 15 52 C11.19373853 55.53438565 8.37173676 59.48973369 5.87988281 64.04980469 C3.82736922 67.39572519 2.37172457 69.65161716 -1.54931641 70.64746094 C-4.52778212 70.78732377 -7.4002535 70.69959589 -10.375 70.5 C-11.39722656 70.46390625 -12.41945313 70.4278125 -13.47265625 70.390625 C-15.98566323 70.29668081 -18.49086139 70.16553566 -21 70 C-21 66 -21 66 -19.53125 64.1328125 C-18.8609375 63.47023437 -18.190625 62.80765625 -17.5 62.125 C-13.42571582 57.76948204 -10.63616165 53.23411884 -7.81298828 48.03393555 C-6.04110758 44.77867152 -4.20254906 41.82012851 -1.875 38.9375 C-1.25625 37.968125 -0.6375 36.99875 0 36 C-1.09909733 32.19105925 -3.10325112 29.05715368 -5.25 25.75 C-5.86488281 24.79738281 -6.47976563 23.84476563 -7.11328125 22.86328125 C-9.34681701 19.47367107 -11.62236422 16.1144454 -13.93359375 12.77734375 C-15 11 -15 11 -15 9 C-15.66 9 -16.32 9 -17 9 C-20 4.61538462 -20 4.61538462 -20 2 C-16.70729828 0.35364914 -13.05135342 0.94099831 -9.4375 1 C-6.61911671 1.04579014 -3.81968962 1.04704383 -1 1 C-0.67 0.67 -0.34 0.34 0 0 Z " fill="#08768E" transform="translate(552,178)"/>
<path d="M0 0 C6.6 0 13.2 0 20 0 C20 5.94 20 11.88 20 18 C24.75658327 17.92123253 24.75658327 17.92123253 29.51269531 17.81982422 C33.19778057 17.78909866 35.88201812 17.95884691 39 20 C38.505 21.485 38.505 21.485 38 23 C37.93212824 24.49860851 37.91500036 26.00002407 37.9375 27.5 C37.94652344 28.2734375 37.95554687 29.046875 37.96484375 29.84375 C37.97644531 30.5553125 37.98804688 31.266875 38 32 C38 32.99 38 33.98 38 35 C35 37 35 37 20 37 C20.33 46.9 20.66 56.8 21 67 C26.22002951 67.61788398 26.22002951 67.61788398 31.44116211 68.22631836 C36.88888889 68.88888889 36.88888889 68.88888889 38 70 C38.09981214 72.6773138 38.13879875 75.32304175 38.125 78 C38.13080078 79.12535156 38.13080078 79.12535156 38.13671875 80.2734375 C38.12661053 85.87338947 38.12661053 85.87338947 37 87 C25.15809063 89.42220873 15.35158021 88.63469187 5.125 82.1875 C0.7543768 77.68832906 -0.34179693 72.78078228 -0.33988953 66.71815491 C-0.32440567 65.96682785 -0.30892181 65.21550079 -0.29296875 64.44140625 C-0.28872391 63.65225327 -0.28447906 62.86310028 -0.28010559 62.05003357 C-0.26344452 59.55382739 -0.22581779 57.05845808 -0.1875 54.5625 C-0.17243683 52.86003778 -0.15875129 51.15756279 -0.14648438 49.45507812 C-0.1135825 45.3030678 -0.06188951 41.1516753 0 37 C-1.27875 37.020625 -2.5575 37.04125 -3.875 37.0625 C-7.75 37.125 -7.75 37.125 -10 36 C-9.67 30.39 -9.34 24.78 -9 19 C-6.36 18.34 -3.72 17.68 -1 17 C-0.67 11.39 -0.34 5.78 0 0 Z " fill="#09768F" transform="translate(350,161)"/>
<path d="M0 0 C1 4 1 4 0 13 C9.9 13 19.8 13 30 13 C27.73907536 25.4350855 27.73907536 25.4350855 25 29.6875 C24.484375 30.51636719 23.96875 31.34523437 23.4375 32.19921875 C22.963125 32.79347656 22.48875 33.38773438 22 34 C21.34 34 20.68 34 20 34 C19.76023438 34.57878906 19.52046875 35.15757812 19.2734375 35.75390625 C14.65315982 43.90316903 4.53075223 48.27110847 -4 51 C-10.17558492 52.50186639 -16.68370892 52.10449746 -23 52 C-24.55947981 47.32156058 -24.03323041 42.70242822 -23.875 37.8125 C-23.8646875 36.79607422 -23.854375 35.77964844 -23.84375 34.73242188 C-23.62083122 28.09201429 -22.75726296 22.90153689 -18 18 C-15.6047071 16.3703368 -13.53060677 15.58923032 -10.75 14.5625 C-9.49431183 14.08589771 -8.23907803 13.60809602 -6.984375 13.12890625 C-5.99953125 12.75636719 -5.0146875 12.38382813 -4 12 C-2.63709042 10.83990094 -2.63709042 10.83990094 -2.5625 7.6875 C-2.08526936 4.55898801 -1.59539315 2.65898859 0 0 Z " fill="#0B8FA8" transform="translate(151,190)"/>
<path d="M0 0 C1.16499023 -0.01836914 1.16499023 -0.01836914 2.35351562 -0.03710938 C6.27482309 -0.04724195 8.22868745 -0.0350417 11.5625 2.1875 C11.92999268 4.92689514 11.92999268 4.92689514 11.91894531 8.45727539 C11.92194641 9.77526627 11.92494751 11.09325714 11.92803955 12.45118713 C11.91603472 13.89584746 11.90355177 15.34050388 11.890625 16.78515625 C11.8875684 18.25963651 11.88569152 19.73411966 11.88494873 21.20860291 C11.88034281 24.29974402 11.86590501 27.39062503 11.84375 30.48168945 C11.81544256 34.45216371 11.80453645 38.42243312 11.8000679 42.3929987 C11.7959196 45.43751593 11.78610749 48.48199138 11.77419281 51.52648735 C11.76847946 52.990978 11.7637243 54.45547269 11.75992584 55.91996956 C11.75308291 57.96237712 11.7385564 60.00475464 11.72363281 62.04711914 C11.71680481 63.21134903 11.70997681 64.37557892 11.70294189 65.5750885 C11.5625 68.1875 11.5625 68.1875 10.5625 69.1875 C3.6325 69.1875 -3.2975 69.1875 -10.4375 69.1875 C-10.4375 46.7475 -10.4375 24.3075 -10.4375 1.1875 C-7.16938198 -0.44655901 -3.58750593 0.00296243 0 0 Z " fill="#11778E" transform="translate(323.4375,178.8125)"/>
<path d="M0 0 C1.27617187 0.00483398 1.27617187 0.00483398 2.578125 0.00976562 C3.46757812 0.01814453 4.35703125 0.02652344 5.2734375 0.03515625 C6.170625 0.03966797 7.0678125 0.04417969 7.9921875 0.04882812 C10.21100398 0.06063034 12.42968768 0.0770947 14.6484375 0.09765625 C15.796706 2.39419325 15.76404925 3.68078792 15.74609375 6.23046875 C15.74287109 7.03613281 15.73964844 7.84179688 15.73632812 8.671875 C15.72794922 9.51363281 15.71957031 10.35539063 15.7109375 11.22265625 C15.70642578 12.07214844 15.70191406 12.92164063 15.69726562 13.796875 C15.68546624 15.89716534 15.66753056 17.99741955 15.6484375 20.09765625 C10.81819877 20.75775395 6.15766801 21.23521211 1.2734375 21.22265625 C0.25507813 21.22523438 -0.76328125 21.2278125 -1.8125 21.23046875 C-4.3515625 21.09765625 -4.3515625 21.09765625 -6.3515625 20.09765625 C-6.3515625 13.82765625 -6.3515625 7.55765625 -6.3515625 1.09765625 C-4.00303722 -0.07660639 -2.61382185 -0.01742548 0 0 Z " fill="#197C93" transform="translate(319.3515625,152.90234375)"/>
<path d="M0 0 C1.84086486 0.00747934 3.68173779 0.01316424 5.52261353 0.01715088 C10.31981181 0.03227417 15.11650979 0.07143774 19.91351318 0.1159668 C24.82768999 0.15721007 29.74194925 0.17522335 34.65625 0.1953125 C44.26323818 0.23794775 53.86985841 0.30603345 63.4765625 0.390625 C65.16456908 3.76663817 63.53590097 7.34512547 62.7109375 10.88671875 C62.419841 12.17993797 62.419841 12.17993797 62.12286377 13.49928284 C61.49726176 16.27708259 60.86289842 19.05276587 60.2265625 21.828125 C57.42826913 34.04354111 54.88281156 46.19862061 53.06347656 58.60180664 C52.64788548 61.28465108 52.16266627 63.77959389 51.4765625 66.390625 C50.8165625 66.390625 50.1565625 66.390625 49.4765625 66.390625 C48.9815625 67.875625 48.9815625 67.875625 48.4765625 69.390625 C48.44960241 66.6197267 48.42974298 63.8490905 48.4140625 61.078125 C48.40568359 60.29244141 48.39730469 59.50675781 48.38867188 58.69726562 C48.38544922 57.93994141 48.38222656 57.18261719 48.37890625 56.40234375 C48.37366943 55.70584717 48.36843262 55.00935059 48.36303711 54.29174805 C48.4765625 52.390625 48.4765625 52.390625 49.4765625 49.390625 C50.1365625 49.060625 50.7965625 48.730625 51.4765625 48.390625 C52.13428678 45.36128009 52.13428678 45.36128009 52.4765625 42.390625 C53.1365625 42.390625 53.7965625 42.390625 54.4765625 42.390625 C54.4146875 41.23691406 54.3528125 40.08320313 54.2890625 38.89453125 C54.2890625 31.57978994 56.02046821 24.46282413 57.4765625 17.328125 C57.76641 15.87580749 58.05547893 14.42333437 58.34375 12.97070312 C59.04571938 9.44217099 59.75820512 5.91586194 60.4765625 2.390625 C50.07078876 2.47521579 39.66516519 2.57017119 29.25960636 2.67815208 C24.42725018 2.72797729 19.59491441 2.77430802 14.76245117 2.8125 C10.09392457 2.84952748 5.42557467 2.89593364 0.75720024 2.94868851 C-1.01883387 2.96714006 -2.79490573 2.98228165 -4.57099724 2.99396896 C-7.06956739 3.0109907 -9.56774093 3.04006181 -12.06616211 3.07177734 C-12.79121445 3.07393753 -13.51626678 3.07609772 -14.26329041 3.07832336 C-18.87708055 3.15254818 -23.00638623 3.84695235 -27.46138859 5.06199074 C-29.77847816 5.43127151 -31.30731382 5.10205239 -33.5234375 4.390625 C-22.21078537 0.29016818 -11.93015765 -0.14419672 0 0 Z " fill="#2EAFC0" transform="translate(138.5234375,105.609375)"/>
<path d="M0 0 C2.56989114 0.95453099 4.90685189 1.94307616 7.25 3.375 C13.85649924 7.27884046 20.45761069 9.64486622 28 11 C28 12.32 28 13.64 28 15 C9.68107026 21.63271594 -10.12226571 24.0608926 -29 18 C-29.99 17.34 -30.98 16.68 -32 16 C-29.54126232 16.14058476 -27.08314825 16.28722999 -24.625 16.4375 C-23.92632812 16.47681641 -23.22765625 16.51613281 -22.5078125 16.55664062 C-17.2265625 16.88671875 -17.2265625 16.88671875 -15 18 C-13.4804236 18.15123831 -11.95527498 18.24881693 -10.4296875 18.31640625 C-9.53378906 18.35830078 -8.63789062 18.40019531 -7.71484375 18.44335938 C-6.77769531 18.48267578 -5.84054688 18.52199219 -4.875 18.5625 C-3.93011719 18.60568359 -2.98523438 18.64886719 -2.01171875 18.69335938 C0.32537092 18.79959072 2.6625683 18.90163176 5 19 C5 18.34 5 17.68 5 17 C5.62648437 16.97421875 6.25296875 16.9484375 6.8984375 16.921875 C7.71570313 16.86515625 8.53296875 16.8084375 9.375 16.75 C10.18710938 16.70359375 10.99921875 16.6571875 11.8359375 16.609375 C14.18838927 16.2077908 14.18838927 16.2077908 15.2890625 13.953125 C15.52367187 13.30859375 15.75828125 12.6640625 16 12 C15.01 11.34 14.02 10.68 13 10 C13 9.34 13 8.68 13 8 C8.545 8.495 8.545 8.495 4 9 C3.505 6.03 3.505 6.03 3 3 C1.68 2.67 0.36 2.34 -1 2 C-0.67 1.34 -0.34 0.68 0 0 Z " fill="#11B0C0" transform="translate(134,278)"/>
<path d="M0 0 C17.82 0.33 35.64 0.66 54 1 C54 1.33 54 1.66 54 2 C36.51 2.33 19.02 2.66 1 3 C1.33 32.37 1.66 61.74 2 92 C6.95 92 11.9 92 17 92 C17.33 81.11 17.66 70.22 18 59 C18.33 59 18.66 59 19 59 C19 70.55 19 82.1 19 94 C12.73 94 6.46 94 0 94 C0 62.98 0 31.96 0 0 Z " fill="#0E697C" transform="translate(245,153)"/>
<path d="M0 0 C0.33 0 0.66 0 1 0 C1.47860886 5.16897565 1.16740484 8.10384333 -1.4375 12.625 C-4.37235037 17.95733378 -4.67079006 22.78626868 -4.859375 28.80078125 C-5 32 -5 32 -5.49829102 34.39501953 C-6.33888794 38.75957876 -6.19047658 43.12999787 -6.1875 47.5625 C-6.18814453 48.54742432 -6.18878906 49.53234863 -6.18945312 50.54711914 C-6.14463265 56.72368672 -5.69144123 62.57281065 -4.4453125 68.63671875 C-3.84544736 71.82021355 -3.85328672 74.7723078 -4 78 C-13.21724171 64.17413744 -11.36679814 41.28077645 -8.375 25.75 C-6.50488071 16.81430337 -3.52191608 8.40563972 0 0 Z " fill="#1FAEC2" transform="translate(44,157)"/>
<path d="M0 0 C0.33 0 0.66 0 1 0 C0.37561594 6.78497342 -0.84594787 13.24101422 -2.375 19.875 C-4.41807208 28.96490188 -6.07083129 38.04559758 -7.421875 47.26171875 C-7.83399414 49.92657024 -8.31877572 52.40596964 -9 55 C-9.66 55 -10.32 55 -11 55 C-11.33 55.99 -11.66 56.98 -12 58 C-12.02696009 55.2291017 -12.04681952 52.4584655 -12.0625 49.6875 C-12.07087891 48.90181641 -12.07925781 48.11613281 -12.08789062 47.30664062 C-12.09111328 46.54931641 -12.09433594 45.79199219 -12.09765625 45.01171875 C-12.10289307 44.31522217 -12.10812988 43.61872559 -12.11352539 42.90112305 C-12 41 -12 41 -11 38 C-10.01 37.505 -10.01 37.505 -9 37 C-8.34227572 33.97065509 -8.34227572 33.97065509 -8 31 C-7.34 31 -6.68 31 -6 31 C-6.061875 29.1128125 -6.061875 29.1128125 -6.125 27.1875 C-6.14263332 21.65063837 -5.13105192 16.40279265 -4 11 C-3.34 11 -2.68 11 -2 11 C-1.7834375 9.1128125 -1.7834375 9.1128125 -1.5625 7.1875 C-1.26251314 4.57332877 -0.84186703 2.52560108 0 0 Z " fill="#14AEC2" transform="translate(199,117)"/>
<path d="M0 0 C0.97110486 3.02121511 1.13617383 5.00463263 0 8 C-0.99 8.495 -0.99 8.495 -2 9 C-2 10.32 -2 11.64 -2 13 C-1.34 13.33 -0.68 13.66 0 14 C-1.61594832 16.04119788 -3.2856382 18.04072937 -5 20 C-5.66 20 -6.32 20 -7 20 C-7.06058594 20.71027344 -7.12117188 21.42054688 -7.18359375 22.15234375 C-7.30927734 23.53099609 -7.30927734 23.53099609 -7.4375 24.9375 C-7.51871094 25.85402344 -7.59992188 26.77054688 -7.68359375 27.71484375 C-8 30 -8 30 -9 31 C-9.39993686 33.68862664 -9.75134543 36.36352217 -10.0625 39.0625 C-10.15337891 39.82111328 -10.24425781 40.57972656 -10.33789062 41.36132812 C-10.5624374 43.2404301 -10.78170978 45.12016095 -11 47 C-12.485 47.495 -12.485 47.495 -14 48 C-12.49262825 31.48640496 -9.3581842 14.0372763 0 0 Z " fill="#29B7C4" transform="translate(88,184)"/>
<path d="M0 0 C-1.62339805 1.70884005 -3.29319053 3.37446717 -5 5 C-5.66 5 -6.32 5 -7 5 C-7 5.66 -7 6.32 -7 7 C-8.609375 8.5859375 -8.609375 8.5859375 -10.75 10.375 C-13.06903702 12.33757727 -15.25219284 14.2588295 -17.375 16.4375 C-19 18 -19 18 -21 18 C-21.27714844 18.57234375 -21.55429688 19.1446875 -21.83984375 19.734375 C-22.98856794 21.97767477 -24.23413994 24.10876289 -25.5625 26.25 C-25.99691406 26.95640625 -26.43132812 27.6628125 -26.87890625 28.390625 C-27.43384766 29.18726563 -27.43384766 29.18726563 -28 30 C-28.33 30 -28.66 30 -29 30 C-29 28.02 -29 26.04 -29 24 C-28.34 24 -27.68 24 -27 24 C-27.33 23.01 -27.66 22.02 -28 21 C-26.68 21 -25.36 21 -24 21 C-23.855625 20.21625 -23.71125 19.4325 -23.5625 18.625 C-23 16 -23 16 -22 14 C-20.35 14 -18.7 14 -17 14 C-16.67 11.69 -16.34 9.38 -16 7 C-14.35 7 -12.7 7 -11 7 C-10.896875 6.236875 -10.79375 5.47375 -10.6875 4.6875 C-9.0392875 -1.75551249 -6.01801529 -1.24902204 0 0 Z " fill="#3BBAC7" transform="translate(146,172)"/>
<path d="M0 0 C0.33 0 0.66 0 1 0 C0.51207993 4.68403271 -0.44680613 8.57169651 -2.28125 12.91015625 C-6.37726565 24.81976697 -4.56282628 39.27774774 -1 51 C-0.27734375 53.63671875 -0.27734375 53.63671875 0 56 C-0.66 56.99 -1.32 57.98 -2 59 C-2.47543239 57.33598663 -2.9507938 55.67195294 -3.42578125 54.0078125 C-3.96891924 52.10867694 -4.51560242 50.21055632 -5.0625 48.3125 C-5.371875 47.219375 -5.68125 46.12625 -6 45 C-6.18087158 44.37174316 -6.36174316 43.74348633 -6.5480957 43.09619141 C-7.44739603 38.92472051 -7.184678 34.62492781 -7.1875 30.375 C-7.20586914 28.95380859 -7.20586914 28.95380859 -7.22460938 27.50390625 C-7.24148183 19.28139621 -6.77050206 11.04660863 -2.375 3.875 C-1.70597656 2.75738281 -1.70597656 2.75738281 -1.0234375 1.6171875 C-0.51683594 0.81667969 -0.51683594 0.81667969 0 0 Z " fill="#52C1CD" transform="translate(74,172)"/>
<path d="M0 0 C0.66 0 1.32 0 2 0 C2.02687279 1.81242052 2.04633715 3.62495233 2.0625 5.4375 C2.07410156 6.44683594 2.08570313 7.45617187 2.09765625 8.49609375 C2 11 2 11 1 12 C-0.44289787 12.09295815 -1.89029785 12.11746513 -3.33618164 12.11352539 C-4.71750023 12.11341209 -4.71750023 12.11341209 -6.12672424 12.11329651 C-7.12775681 12.10813522 -8.12878937 12.10297394 -9.16015625 12.09765625 C-10.17975937 12.0962413 -11.19936249 12.09482635 -12.24986267 12.09336853 C-15.52077107 12.08775097 -18.79161213 12.0751955 -22.0625 12.0625 C-24.27408756 12.05748726 -26.48567618 12.05292396 -28.69726562 12.04882812 C-34.13153357 12.03777584 -39.56576197 12.02102063 -45 12 C-42.3375614 17.45763037 -40.59653048 20.49121048 -35 23 C-38.71599191 23.20086443 -39.77208445 23.1519437 -43 21 C-45.67145537 21.80161791 -45.67145537 21.80161791 -48 23 C-48 19 -48 19 -47 18 C-47 17.01 -47 16.02 -47 15 C-47 12 -47 12 -46 11 C-44.58882298 10.87790076 -43.17179541 10.82229128 -41.75561523 10.79467773 C-40.85475693 10.77473251 -39.95389862 10.75478729 -39.02574158 10.73423767 C-38.04658279 10.71752518 -37.06742401 10.70081268 -36.05859375 10.68359375 C-35.06118668 10.66281265 -34.0637796 10.64203156 -33.03614807 10.62062073 C-29.83667157 10.55501363 -26.63711018 10.49618866 -23.4375 10.4375 C-21.27407961 10.39432538 -19.11066794 10.35071145 -16.94726562 10.30664062 C-11.63159836 10.19932091 -6.31584536 10.09808531 -1 10 C-0.67 6.7 -0.34 3.4 0 0 Z " fill="#468997" transform="translate(531,208)"/>
<path d="M0 0 C-0.125 1.75 -0.125 1.75 -1 4 C-3.9375 6.125 -3.9375 6.125 -7 8 C-7.66 8.66 -8.32 9.32 -9 10 C-9.94875 10.2475 -10.8975 10.495 -11.875 10.75 C-15.86603133 12.34641253 -16.76285272 14.42056435 -19 18 C-20.32567199 18.68177416 -21.65753688 19.35191436 -23 20 C-23.2165625 20.8971875 -23.2165625 20.8971875 -23.4375 21.8125 C-24.28115469 25.09337934 -26.6125011 26.67073278 -29 29 C-30.29519995 31.16620544 -30.29519995 31.16620544 -31 33 C-31.66 33 -32.32 33 -33 33 C-33 33.66 -33 34.32 -33 35 C-33.66 34.67 -34.32 34.34 -35 34 C-32.23885546 28.86374772 -29.16938006 24.48082223 -25.375 20.0625 C-24.88515625 19.47404297 -24.3953125 18.88558594 -23.890625 18.27929688 C-22.64190942 16.81052077 -21.32586642 15.39952566 -20 14 C-19.34 14 -18.68 14 -18 14 C-17.79375 13.4225 -17.5875 12.845 -17.375 12.25 C-15.47442144 9.13996235 -13.08169828 7.94032855 -10 6 C-7.89467189 4.4112208 -5.81109137 2.79783123 -3.734375 1.171875 C-2 0 -2 0 0 0 Z " fill="#54BBC9" transform="translate(82,119)"/>
<path d="M0 0 C0.99 0.33 1.98 0.66 3 1 C3.33 14.53 3.66 28.06 4 42 C-1.28 42 -6.56 42 -12 42 C-12 41.67 -12 41.34 -12 41 C-8.37 41 -4.74 41 -1 41 C-0.08330977 36.41654885 0.12903279 32.26694651 0.09765625 27.63671875 C0.0962413 26.84473587 0.09482635 26.05275299 0.09336853 25.23677063 C0.08779457 22.72030781 0.07524693 20.20393569 0.0625 17.6875 C0.05748163 15.97591275 0.05291931 14.26432409 0.04882812 12.55273438 C0.03783368 8.36845492 0.02058707 4.18424281 0 0 Z " fill="#0E6A7D" transform="translate(412,205)"/>
<path d="M0 0 C0.99 0.33 1.98 0.66 3 1 C2.67 1.99 2.34 2.98 2 4 C1.93212824 5.49860851 1.91500036 7.00002407 1.9375 8.5 C1.94652344 9.2734375 1.95554687 10.046875 1.96484375 10.84375 C1.97644531 11.5553125 1.98804688 12.266875 2 13 C2 13.99 2 14.98 2 16 C-1.68397116 18.45598077 -4.44723808 18.2271532 -8.6875 18.125 C-11.100625 18.08375 -13.51375 18.0425 -16 18 C-15.67 27.57 -15.34 37.14 -15 47 C-15.66 47 -16.32 47 -17 47 C-17.04938628 42.76417673 -17.08571263 38.52850535 -17.10986328 34.29248047 C-17.11992963 32.85104453 -17.1335838 31.40962905 -17.15087891 29.96826172 C-17.17510012 27.89806066 -17.18647641 25.82812924 -17.1953125 23.7578125 C-17.20578613 22.5114502 -17.21625977 21.26508789 -17.22705078 19.98095703 C-17 17 -17 17 -15 15 C-12.41048555 14.85452166 -9.95814609 14.81350948 -7.375 14.875 C-3.724375 14.936875 -3.724375 14.936875 0 15 C0 10.05 0 5.1 0 0 Z " fill="#518E9F" transform="translate(386,180)"/>
<path d="M0 0 C0.125 2.375 0.125 2.375 0 5 C-0.66 5.66 -1.32 6.32 -2 7 C-3.32 7 -4.64 7 -6 7 C-6 8.32 -6 9.64 -6 11 C-7.65 10.67 -9.3 10.34 -11 10 C-8.74259377 7.66475218 -6.7194239 5.81294927 -4 4 C-8.95 4.33 -13.9 4.66 -19 5 C-19 4.34 -19 3.68 -19 3 C-12.12431628 -0.34453926 -7.55052001 -1.46139097 0 0 Z " fill="#26B5C9" transform="translate(135,137)"/>
<path d="M0 0 C2.45873768 0.14058476 4.91685175 0.28722999 7.375 0.4375 C8.07367188 0.47681641 8.77234375 0.51613281 9.4921875 0.55664062 C14.7734375 0.88671875 14.7734375 0.88671875 17 2 C19.25120742 2.08573394 21.50499303 2.10712188 23.7578125 2.09765625 C24.42086395 2.0962413 25.08391541 2.09482635 25.76705933 2.09336853 C27.88641863 2.08776754 30.00567259 2.075215 32.125 2.0625 C33.56119639 2.05748512 34.99739444 2.05292219 36.43359375 2.04882812 C39.95576345 2.03779782 43.47787145 2.02053259 47 2 C47 2.33 47 2.66 47 3 C32.99156724 6.73558207 16.82584586 6.43893137 3 2 C2.01 1.34 1.02 0.68 0 0 Z " fill="#63C8D6" transform="translate(102,294)"/>
<path d="M0 0 C1.03163067 3.094892 0.77216727 4.53271276 0.26171875 7.6484375 C-0.63594633 15.71402525 -0.28014048 23.99912202 1 32 C1.66 32 2.32 32 3 32 C7 38.75 7 38.75 7 41 C7.66 41.33 8.32 41.66 9 42 C8.01 42 7.02 42 6 42 C-1.54335533 33.69052264 -3.51793971 24.3762483 -3.3046875 13.46484375 C-2.8864297 8.70850187 -1.71889176 4.44047037 0 0 Z " fill="#71ACB7" transform="translate(468,197)"/>
<path d="M0 0 C0.33 0 0.66 0 1 0 C1.33 9.9 1.66 19.8 2 30 C2.33 30 2.66 30 3 30 C4.17293889 36.3778552 5.29530838 42.50321562 5 49 C-3.57093745 36.14359382 -2.41218056 14.66919562 0 0 Z " fill="#5FC2D0" transform="translate(35,186)"/>
<path d="M0 0 C1.14453125 1.625 1.14453125 1.625 2 4 C1.13671875 6.875 1.13671875 6.875 -0.3125 10 C-2.79871115 15.44922992 -4.13101558 19.41719605 -4.09765625 25.421875 C-4.09443359 26.44667969 -4.09121094 27.47148437 -4.08789062 28.52734375 C-4.07951172 29.59082031 -4.07113281 30.65429688 -4.0625 31.75 C-4.05798828 32.82894531 -4.05347656 33.90789062 -4.04882812 35.01953125 C-4.03705727 37.67974383 -4.02061399 40.33984365 -4 43 C-4.99 43.495 -4.99 43.495 -6 44 C-6.22819748 39.85501384 -6.42892125 35.70911983 -6.625 31.5625 C-6.68945312 30.39783203 -6.75390625 29.23316406 -6.8203125 28.03320312 C-7.12543961 21.26319531 -6.83096379 15.53416467 -5 9 C-4.01 9 -3.02 9 -2 9 C-2 7.02 -2 5.04 -2 3 C-1.34 3 -0.68 3 0 3 C0 2.01 0 1.02 0 0 Z " fill="#4EC3D3" transform="translate(115,200)"/>
<path d="M0 0 C1.40765625 0.10054687 1.40765625 0.10054687 2.84375 0.203125 C5.5 0.75 5.5 0.75 9.5 3.75 C2.24 3.75 -5.02 3.75 -12.5 3.75 C-12.5 4.74 -12.5 5.73 -12.5 6.75 C-13.16 6.75 -13.82 6.75 -14.5 6.75 C-14.5 7.41 -14.5 8.07 -14.5 8.75 C-16.15 8.75 -17.8 8.75 -19.5 8.75 C-13.50679053 2.41432142 -8.7754481 -0.72325122 0 0 Z " fill="#428E9F" transform="translate(436.5,177.25)"/>
<path d="M0 0 C-3.56017692 1.18672564 -5.33346109 0.64626046 -9 0 C-11.37310315 -0.11363411 -13.74921241 -0.17467177 -16.125 -0.1875 C-17.92324219 -0.20876953 -17.92324219 -0.20876953 -19.7578125 -0.23046875 C-22.85208768 -0.01051425 -24.48172034 0.25345121 -27 2 C-27.99 3.485 -27.99 3.485 -29 5 C-31.1640625 5.73046875 -31.1640625 5.73046875 -33.625 6.1875 C-34.44226563 6.34605469 -35.25953125 6.50460938 -36.1015625 6.66796875 C-36.72804688 6.77753906 -37.35453125 6.88710937 -38 7 C-28.30826861 -4.25491387 -13.14205908 -5.33300948 0 0 Z " fill="#6DA5B7" transform="translate(514,180)"/>
<path d="M0 0 C0.33 0 0.66 0 1 0 C0.35960089 7.02983572 -0.93278362 13.74715896 -2.5 20.625 C-3.88150616 26.73520437 -5.23327338 32.77905904 -6 39 C-6.33 39 -6.66 39 -7 39 C-6.57800555 29.52733516 -6.06627421 20.28820348 -4 11 C-3.34 11 -2.68 11 -2 11 C-1.7834375 9.1128125 -1.7834375 9.1128125 -1.5625 7.1875 C-1.26251314 4.57332877 -0.84186703 2.52560108 0 0 Z " fill="#59C2CC" transform="translate(199,117)"/>
<path d="M0 0 C-0.61488281 0.19335938 -1.22976562 0.38671875 -1.86328125 0.5859375 C-3.07564453 0.97652344 -3.07564453 0.97652344 -4.3125 1.375 C-5.11300781 1.63023438 -5.91351563 1.88546875 -6.73828125 2.1484375 C-9.22724528 2.98831811 -9.22724528 2.98831811 -12 5 C-12.969375 5.12375 -13.93875 5.2475 -14.9375 5.375 C-18.09093776 5.69652142 -18.09093776 5.69652142 -19.75 8 C-23.29079045 11.14736929 -27.40578872 10.82464842 -32 11 C-25.76283523 6.20009494 -19.16132259 3.58174762 -11.75 1.1875 C-10.70344238 0.84066162 -10.70344238 0.84066162 -9.63574219 0.48681641 C-3.43783127 -1.44424355 -3.43783127 -1.44424355 0 0 Z " fill="#5DC2CC" transform="translate(114,108)"/>
<path d="M0 0 C2.64 0 5.28 0 8 0 C6.61256901 4.04667372 4.73584266 6.73218794 2 10 C0.41167126 12.13369475 -1.16194229 14.27749565 -2.73046875 16.42578125 C-3.35888672 17.20501953 -3.35888672 17.20501953 -4 18 C-4.33 18 -4.66 18 -5 18 C-5 16.35 -5 14.7 -5 13 C-4.360625 12.7525 -3.72125 12.505 -3.0625 12.25 C-0.84540342 11.21059622 -0.84540342 11.21059622 -0.375 9.125 C-0.25125 8.42375 -0.1275 7.7225 0 7 C0.66666667 5.66666667 1.33333333 4.33333333 2 3 C2 2.34 2 1.68 2 1 C1.34 0.67 0.68 0.34 0 0 Z " fill="#378291" transform="translate(593,180)"/>
<path d="M0 0 C0.33 0 0.66 0 1 0 C1.33 7.26 1.66 14.52 2 22 C2.66 22 3.32 22 4 22 C4.33 24.64 4.66 27.28 5 30 C4.34 29.67 3.68 29.34 3 29 C3 27.68 3 26.36 3 25 C2.01 24.67 1.02 24.34 0 24 C-0.95256076 19.19183617 -1.15179186 14.62611883 -1.125 9.75 C-1.12886719 9.03070313 -1.13273437 8.31140625 -1.13671875 7.5703125 C-1.12676222 2.25352444 -1.12676222 2.25352444 0 0 Z " fill="#1BAFC2" transform="translate(108,221)"/>
<path d="M0 0 C0 3.10551666 -0.5393715 4.35261084 -2 7 C-2.66 7 -3.32 7 -4 7 C-4.12375 7.969375 -4.2475 8.93875 -4.375 9.9375 C-4.58125 10.948125 -4.7875 11.95875 -5 13 C-5.99 13.495 -5.99 13.495 -7 14 C-7.99 13.67 -8.98 13.34 -10 13 C-10.33 13.99 -10.66 14.98 -11 16 C-11.66 15.67 -12.32 15.34 -13 15 C-11.58611621 13.24775086 -10.16877217 11.49829345 -8.75 9.75 C-7.96109375 8.77546875 -7.1721875 7.8009375 -6.359375 6.796875 C-4.33534195 4.39752456 -2.25877651 2.17588563 0 0 Z " fill="#3EBDCC" transform="translate(109,157)"/>
<path d="M0 0 C3.60671949 1.33963867 6.72050089 3.00030542 10 5 C11.99242489 6.0150089 13.99074195 7.01873444 16 8 C13.11788698 8.96070434 11.30149956 9.10581883 8.3125 9.0625 C7.10013672 9.04896484 7.10013672 9.04896484 5.86328125 9.03515625 C4.94095703 9.01775391 4.94095703 9.01775391 4 9 C3.67 7.02 3.34 5.04 3 3 C1.68 2.67 0.36 2.34 -1 2 C-0.67 1.34 -0.34 0.68 0 0 Z " fill="#47C0CE" transform="translate(134,278)"/>
<path d="M0 0 C0 3.94639822 -1.78378512 5.92457565 -4 9 C-4.47050781 9.71542969 -4.94101562 10.43085938 -5.42578125 11.16796875 C-5.92464844 11.89628906 -6.42351563 12.62460938 -6.9375 13.375 C-7.63166016 14.40753906 -7.63166016 14.40753906 -8.33984375 15.4609375 C-10 17 -10 17 -12.69140625 17.2265625 C-13.45324219 17.15179688 -14.21507812 17.07703125 -15 17 C-13.68 16.67 -12.36 16.34 -11 16 C-10.7834375 15.1028125 -10.7834375 15.1028125 -10.5625 14.1875 C-10.1127561 12.43849596 -9.57107659 10.71322977 -9 9 C-8.01 9 -7.02 9 -6 9 C-5.896875 8.360625 -5.79375 7.72125 -5.6875 7.0625 C-5.460625 6.381875 -5.23375 5.70125 -5 5 C-4.01 4.67 -3.02 4.34 -2 4 C-2 3.01 -2 2.02 -2 1 C-1.34 0.67 -0.68 0.34 0 0 Z " fill="#3F8694" transform="translate(563,231)"/>
<path d="M0 0 C0.66 0.66 1.32 1.32 2 2 C1.05065487 3.67180274 0.09026687 5.33733936 -0.875 7 C-1.40867188 7.928125 -1.94234375 8.85625 -2.4921875 9.8125 C-2.98976562 10.534375 -3.48734375 11.25625 -4 12 C-4.66 12 -5.32 12 -6 12 C-6.2475 12.61875 -6.495 13.2375 -6.75 13.875 C-8.20628639 16.35068687 -9.37812506 16.95125002 -12 18 C-11.6875 15.625 -11.6875 15.625 -11 13 C-8 11 -8 11 -5 11 C-4.9175 10.29875 -4.835 9.5975 -4.75 8.875 C-3.82972275 5.34727053 -2.11873023 2.93888386 0 0 Z " fill="#47A2AD" transform="translate(177,212)"/>
<path d="M0 0 C1.50433594 0.01353516 1.50433594 0.01353516 3.0390625 0.02734375 C3.80992187 0.03894531 4.58078125 0.05054688 5.375 0.0625 C5.045 1.0525 4.715 2.0425 4.375 3.0625 C1.735 3.3925 -0.905 3.7225 -3.625 4.0625 C-2.305 5.3825 -0.985 6.7025 0.375 8.0625 C-0.615 9.5475 -0.615 9.5475 -1.625 11.0625 C-1.955 10.0725 -2.285 9.0825 -2.625 8.0625 C-3.285 8.0625 -3.945 8.0625 -4.625 8.0625 C-7.625 3.67788462 -7.625 3.67788462 -7.625 1.0625 C-4.98041621 -0.25979189 -2.94738699 -0.03427194 0 0 Z " fill="#329DA9" transform="translate(539.625,178.9375)"/>
<path d="M0 0 C3.93449672 0.5828884 6.20683331 2.20683331 9 5 C11.66535459 9.78946859 12.48311411 13.60685778 11 19 C10.67 19 10.34 19 10 19 C8.86235649 14.73383684 8 11.43513689 8 7 C7.34 7 6.68 7 6 7 C5.67 6.34 5.34 5.68 5 5 C4.01 4.67 3.02 4.34 2 4 C2 3.01 2 2.02 2 1 C1.34 0.67 0.68 0.34 0 0 Z " fill="#418B99" transform="translate(446,181)"/>
<path d="M0 0 C5.94 0.99 5.94 0.99 12 2 C12 3.32 12 4.64 12 6 C10.5882217 6.53394179 9.17029756 7.05165104 7.75 7.5625 C6.96109375 7.85253906 6.1721875 8.14257812 5.359375 8.44140625 C3 9 3 9 -1 8 C1.64 7.01 4.28 6.02 7 5 C4.77810176 2.77810176 2.91517292 2.07401108 0 1 C0 0.67 0 0.34 0 0 Z " fill="#62C6CB" transform="translate(150,287)"/>
<path d="M0 0 C-5.46342419 5.46342419 -14.72698091 5.05316365 -22 5.0625 C-23.66672149 5.04664803 -25.33343119 5.02757191 -27 5 C-23.525308 2.68353867 -21.80092171 2.68977724 -17.6875 2.5 C-11.55428615 2.21506556 -6.07232723 -0.35719572 0 0 Z " fill="#3E9AA7" transform="translate(155,237)"/>
<path d="M0 0 C0.33 0 0.66 0 1 0 C0.85775413 2.52108103 0.71129879 5.04180403 0.5625 7.5625 C0.50352539 8.61920898 0.50352539 8.61920898 0.44335938 9.69726562 C0.17481721 14.1798541 -0.30616197 18.56293497 -1 23 C-1.99 23.33 -2.98 23.66 -4 24 C-2.07289294 7.1070615 -2.07289294 7.1070615 0 0 Z " fill="#67CDDA" transform="translate(78,208)"/>
<path d="M0 0 C0.33 2.31 0.66 4.62 1 7 C0.34 7 -0.32 7 -1 7 C-1 5.02 -1 3.04 -1 1 C-1.9075 1.185625 -2.815 1.37125 -3.75 1.5625 C-9.17375579 2.36767612 -14.58253845 1.57821839 -20 1 C-19.67 0.34 -19.34 -0.32 -19 -1 C-12.43753343 -2.61457511 -6.39753713 -1.86981158 0 0 Z " fill="#3B8E9F" transform="translate(416,180)"/>
<path d="M0 0 C0.33 0 0.66 0 1 0 C1.89659598 7.77049853 -0.94471504 13.43380026 -5 20 C-5.66 20.33 -6.32 20.66 -7 21 C-4.96192707 13.8821847 -2.59655258 6.93292719 0 0 Z " fill="#63C5D2" transform="translate(44,157)"/>
<path d="M0 0 C0.5775 0.7425 1.155 1.485 1.75 2.25 C4.83948756 6.02604036 7.46174673 9.05503431 12 11 C8.28400809 11.20086443 7.22791555 11.1519437 4 9 C1.32854463 9.80161791 1.32854463 9.80161791 -1 11 C-1 7 -1 7 0 6 C0.04080783 4.00041636 0.04254356 1.99954746 0 0 Z " fill="#308B9A" transform="translate(484,220)"/>
<path d="M0 0 C0.66 0 1.32 0 2 0 C2.185625 0.9590625 2.185625 0.9590625 2.375 1.9375 C2.684375 2.9584375 2.684375 2.9584375 3 4 C3.66 4.33 4.32 4.66 5 5 C7.20926997 10.24701618 8.7142041 15.46118687 10 21 C5.48404193 18.74202096 3.57329062 11.66795971 2.0078125 7.11328125 C1.29998033 4.75047006 0.6244438 2.38608605 0 0 Z " fill="#52C2CF" transform="translate(40,235)"/>
<path d="M0 0 C3.88681835 1.29560612 4.85421182 3.09156368 7.25 6.375 C8.34054687 7.84066406 8.34054687 7.84066406 9.453125 9.3359375 C9.96359375 10.21507812 10.4740625 11.09421875 11 12 C10.67 12.99 10.34 13.98 10 15 C4.42857143 9.85714286 4.42857143 9.85714286 4 6 C1.69 5.34 -0.62 4.68 -3 4 C-3 3.34 -3 2.68 -3 2 C-2.01 1.34 -1.02 0.68 0 0 Z " fill="#459BA5" transform="translate(516,226)"/>
<path d="M0 0 C0.474375 0.495 0.94875 0.99 1.4375 1.5 C1.1075 2.49 0.7775 3.48 0.4375 4.5 C0.086875 4.025625 -0.26375 3.55125 -0.625 3.0625 C-3.53240751 0.71781653 -5.86237838 0.68197319 -9.5625 0.5 C-12.40608348 0.91416314 -14.8052979 1.59677862 -17.5625 2.5 C-17.8925 3.16 -18.2225 3.82 -18.5625 4.5 C-18.5625 2.85 -18.5625 1.2 -18.5625 -0.5 C-4.84340659 -2.83516484 -4.84340659 -2.83516484 0 0 Z " fill="#559BA8" transform="translate(436.5625,197.5)"/>
<path d="M0 0 C2.97 0.495 2.97 0.495 6 1 C5.319375 1.639375 4.63875 2.27875 3.9375 2.9375 C0.75901898 6.08865883 -1.8649177 9.63303163 -4.546875 13.20703125 C-5.02640625 13.79871094 -5.5059375 14.39039063 -6 15 C-6.33 15 -6.66 15 -7 15 C-7.25 12.6875 -7.25 12.6875 -7 10 C-5.0625 8.375 -5.0625 8.375 -3 7 C-2.67 6.01 -2.34 5.02 -2 4 C-1.34 4 -0.68 4 0 4 C0 2.68 0 1.36 0 0 Z " fill="#53BECA" transform="translate(83,156)"/>
<path d="M0 0 C1.65 0 3.3 0 5 0 C3.59099426 4.48320008 1.32565176 6.75546169 -2 10 C-2.8353125 11.3921875 -2.8353125 11.3921875 -3.6875 12.8125 C-4.120625 13.534375 -4.55375 14.25625 -5 15 C-5.66 15 -6.32 15 -7 15 C-5.64823099 10.94469298 -3.62727447 7.97472634 -1.0234375 4.6484375 C0.26373154 2.89859463 0.26373154 2.89859463 0 0 Z " fill="#5799AA" transform="translate(552,211)"/>
<path d="M0 0 C1.98 0.66 3.96 1.32 6 2 C5.67 2.99 5.34 3.98 5 5 C4.34 5 3.68 5 3 5 C1.7625 5.7425 1.7625 5.7425 0.5 6.5 C-2 8 -2 8 -4 8 C-4 4 -4 4 -2 1.75 C-1.01 0.88375 -1.01 0.88375 0 0 Z " fill="#47BFCD" transform="translate(150,164)"/>
<path d="M0 0 C-0.125 1.75 -0.125 1.75 -1 4 C-3.9375 6.125 -3.9375 6.125 -7 8 C-7.66 8.66 -8.32 9.32 -9 10 C-9.99 10 -10.98 10 -12 10 C-10.58426179 6.60812721 -8.95769034 4.90302459 -6 2.75 C-5.29875 2.22921875 -4.5975 1.7084375 -3.875 1.171875 C-2 0 -2 0 0 0 Z " fill="#3EBBCA" transform="translate(82,119)"/>
<path d="M0 0 C-6.65637843 1.23839599 -13.2471936 1.09139136 -20 1 C-17.08149788 -0.94566808 -15.42377152 -1.5152457 -12.0625 -2.1875 C-11.20785156 -2.36667969 -10.35320312 -2.54585937 -9.47265625 -2.73046875 C-5.35968639 -3.17880196 -3.44033606 -2.29355737 0 0 Z " fill="#4893A2" transform="translate(387,248)"/>
<path d="M0 0 C0.99 0.33 1.98 0.66 3 1 C6.12486016 1.30486441 9.25028111 1.50841216 12.3828125 1.71875 C15 2 15 2 16 3 C16.07244053 5.01964199 16.08377188 7.04167124 16.0625 9.0625 C16.05347656 10.16722656 16.04445313 11.27195313 16.03515625 12.41015625 C16.02355469 13.26480469 16.01195312 14.11945313 16 15 C15.67 15 15.34 15 15 15 C14.34 11.37 13.68 7.74 13 4 C9.04 3.67 5.08 3.34 1 3 C0.67 2.01 0.34 1.02 0 0 Z " fill="#428794" transform="translate(372,228)"/>
<path d="M0 0 C2.64 0 5.28 0 8 0 C7.67 1.32 7.34 2.64 7 4 C5.35 4.33 3.7 4.66 2 5 C2 6.32 2 7.64 2 9 C0.35 8.67 -1.3 8.34 -3 8 C-0.74259377 5.66475218 1.2805761 3.81294927 4 2 C2.68 1.34 1.36 0.68 0 0 Z " fill="#41C1CA" transform="translate(127,139)"/>
<path d="M0 0 C0 0.66 0 1.32 0 2 C-0.61488281 2.14695313 -1.22976562 2.29390625 -1.86328125 2.4453125 C-7.39787952 3.92039146 -7.39787952 3.92039146 -11.0625 8.1875 C-11.5265625 9.5796875 -11.5265625 9.5796875 -12 11 C-12.99 10.34 -13.98 9.68 -15 9 C-13.80199695 5.91942073 -12.5914334 4.30699611 -9.64453125 2.77734375 C-2.74596774 0 -2.74596774 0 0 0 Z " fill="#55A5B2" transform="translate(145,204)"/>
<path d="M0 0 C10.70899471 -0.38095238 10.70899471 -0.38095238 16 2 C18 4 18 4 18.125 6.625 C18.08375 7.40875 18.0425 8.1925 18 9 C17.51789062 8.57847656 17.03578125 8.15695313 16.5390625 7.72265625 C15.90742188 7.17480469 15.27578125 6.62695312 14.625 6.0625 C13.99851562 5.51722656 13.37203125 4.97195312 12.7265625 4.41015625 C9.95489365 2.14641767 7.87676421 1.78767642 4.375 1.4375 C3.55773437 1.35371094 2.74046875 1.26992187 1.8984375 1.18359375 C1.27195312 1.12300781 0.64546875 1.06242188 0 1 C0 0.67 0 0.34 0 0 Z " fill="#5197A8" transform="translate(495,194)"/>
<path d="M0 0 C0.66 0 1.32 0 2 0 C2 1.98 2 3.96 2 6 C3.98 5.67 5.96 5.34 8 5 C7.67 6.32 7.34 7.64 7 9 C3 9 3 9 0 7 C-0.1875 3.375 -0.1875 3.375 0 0 Z " fill="#0F6E86" transform="translate(413,181)"/>
<path d="M0 0 C1.64630328 0.14042877 3.29204179 0.28749329 4.9375 0.4375 C6.31228516 0.55931641 6.31228516 0.55931641 7.71484375 0.68359375 C10 1 10 1 11 2 C13.52596259 2.23653523 16.03107207 2.42173692 18.5625 2.5625 C19.27341797 2.60568359 19.98433594 2.64886719 20.71679688 2.69335938 C22.47761912 2.79971777 24.2387832 2.90038846 26 3 C26 3.33 26 3.66 26 4 C8.14350797 4.55353075 8.14350797 4.55353075 0 1 C0 0.67 0 0.34 0 0 Z " fill="#6099A2" transform="translate(484,245)"/>
<path d="M0 0 C4.54075781 4.14010271 7.71842138 8.82390176 11 14 C10.67 14.66 10.34 15.32 10 16 C7 12.25 7 12.25 7 10 C6.01 10 5.02 10 4 10 C2 7 2 7 2 4 C1.34 4 0.68 4 0 4 C0 2.68 0 1.36 0 0 Z " fill="#4C919A" transform="translate(584,222)"/>
<path d="M0 0 C0.97110486 3.02121511 1.13617383 5.00463263 0 8 C-0.99 8.495 -0.99 8.495 -2 9 C-2.65555119 11.52733235 -2.65555119 11.52733235 -3 14 C-3.99 13.67 -4.98 13.34 -6 13 C-3.10933941 3.40546697 -3.10933941 3.40546697 0 0 Z " fill="#41BECE" transform="translate(88,184)"/>
<path d="M0 0 C0.66 0.33 1.32 0.66 2 1 C1.443125 1.53625 0.88625 2.0725 0.3125 2.625 C-1.45425208 4.43950214 -2.95415866 6.20135711 -4.5 8.1875 C-7.66960352 11.75330396 -7.66960352 11.75330396 -11 12 C-7.375 6.125 -7.375 6.125 -4 5 C-3.30062468 3.68352881 -2.63270867 2.34977849 -2 1 C-1.34 0.67 -0.68 0.34 0 0 Z " fill="#61C5CF" transform="translate(68,128)"/>
<path d="M0 0 C3.3 0 6.6 0 10 0 C8.01388388 1.98611612 6.55856751 2.91454712 4 4 C3.01 4 2.02 4 1 4 C1 5.65 1 7.3 1 9 C0.67 9 0.34 9 0 9 C0 6.03 0 3.06 0 0 Z " fill="#228C9A" transform="translate(315,179)"/>
<path d="M0 0 C3.3 0.33 6.6 0.66 10 1 C10.33 1.99 10.66 2.98 11 4 C11.66 4 12.32 4 13 4 C13 4.66 13 5.32 13 6 C8.31479085 4.78184562 4.29456388 3.30440013 0 1 C0 0.67 0 0.34 0 0 Z " fill="#57C3D0" transform="translate(86,288)"/>
<path d="M0 0 C2.97 0.33 5.94 0.66 9 1 C9.33 3.31 9.66 5.62 10 8 C8 8 8 8 5.5625 5.6875 C4.716875 4.800625 3.87125 3.91375 3 3 C2.01 2.01 1.02 1.02 0 0 Z " fill="#3EBCCB" transform="translate(65,273)"/>
<path d="M0 0 C0.66 0 1.32 0 2 0 C2.66 1.98 3.32 3.96 4 6 C-1.28 6 -6.56 6 -12 6 C-12 5.67 -12 5.34 -12 5 C-8.37 5 -4.74 5 -1 5 C-0.67 3.35 -0.34 1.7 0 0 Z " fill="#137187" transform="translate(412,241)"/>
<path d="M0 0 C0 0.33 0 0.66 0 1 C-7.65199697 2.23535374 -15.27577951 3.33742578 -23 4 C-17.17038613 -1.82961387 -7.56955276 -0.18897635 0 0 Z " fill="#1EA8B6" transform="translate(128,107)"/>
<path d="M0 0 C0.33 0.66 0.66 1.32 1 2 C0.67 2.99 0.34 3.98 0 5 C3.96 5.33 7.92 5.66 12 6 C12 6.33 12 6.66 12 7 C7.05 7 2.1 7 -3 7 C-3 3 -3 3 -1.5 1.25 C-1.005 0.8375 -0.51 0.425 0 0 Z " fill="#4C8E9C" transform="translate(534,241)"/>
<path d="M0 0 C0.33 0 0.66 0 1 0 C1 5.61 1 11.22 1 17 C2.65 17.33 4.3 17.66 6 18 C6.33 18.66 6.66 19.32 7 20 C4.69 19.67 2.38 19.34 0 19 C0 12.73 0 6.46 0 0 Z " fill="#377B88" transform="translate(369,162)"/>
<path d="M0 0 C2.31 0.33 4.62 0.66 7 1 C7 1.33 7 1.66 7 2 C5.35 2.33 3.7 2.66 2 3 C2 7.95 2 12.9 2 18 C1.34 18 0.68 18 0 18 C0 12.06 0 6.12 0 0 Z " fill="#126B7D" transform="translate(314,154)"/>
<path d="M0 0 C0 0.66 0 1.32 0 2 C-2.96178773 3.67110042 -5.37071192 4.32682752 -8.75 4.625 C-9.54921875 4.69976562 -10.3484375 4.77453125 -11.171875 4.8515625 C-12.07679687 4.92503906 -12.07679687 4.92503906 -13 5 C-8.61576048 1.55524038 -5.69164233 -0.31620235 0 0 Z " fill="#42BAC8" transform="translate(95,114)"/>
<path d="M0 0 C3 1 3 1 4 3 C6.78336238 3.43106693 6.78336238 3.43106693 10 3.5625 C15.90362954 3.90362954 15.90362954 3.90362954 17 5 C17.04063832 6.66617115 17.042721 8.33388095 17 10 C16.79246094 9.35289062 16.58492188 8.70578125 16.37109375 8.0390625 C15.14427753 5.69694665 15.14427753 5.69694665 12.28515625 5.4609375 C11.22167969 5.43257812 10.15820312 5.40421875 9.0625 5.375 C3.28890306 5.19260204 3.28890306 5.19260204 0 3 C0 2.01 0 1.02 0 0 Z " fill="#0A7182" transform="translate(369,227)"/>
<path d="M0 0 C0.66 1.32 1.32 2.64 2 4 C1.02501855 5.5027237 0.04490611 7.00211963 -0.9375 8.5 C-1.48277344 9.3353125 -2.02804688 10.170625 -2.58984375 11.03125 C-3.05519531 11.6809375 -3.52054687 12.330625 -4 13 C-4.33 13 -4.66 13 -5 13 C-5 11.02 -5 9.04 -5 7 C-4.34 7 -3.68 7 -3 7 C-3.33 6.01 -3.66 5.02 -4 4 C-2.68 4 -1.36 4 0 4 C0 2.68 0 1.36 0 0 Z " fill="#4BBFCC" transform="translate(122,189)"/>
<path d="M0 0 C1.0625 1.8125 1.0625 1.8125 2 4 C1.67 4.99 1.34 5.98 1 7 C-0.32 7 -1.64 7 -3 7 C-3 7.99 -3 8.98 -3 10 C-3.99 10.33 -4.98 10.66 -6 11 C-4.54955729 6.89041233 -2.48889248 3.56741255 0 0 Z " fill="#4CC0CE" transform="translate(95,173)"/>
<path d="M0 0 C0.33 0 0.66 0 1 0 C0.88529863 1.75070517 0.75780972 3.50057536 0.625 5.25 C0.55539063 6.22453125 0.48578125 7.1990625 0.4140625 8.203125 C0.01534751 10.89633189 -0.63507063 12.66963279 -2 15 C-2.05386629 12.87527424 -2.09273071 10.75016348 -2.125 8.625 C-2.14820313 7.44164062 -2.17140625 6.25828125 -2.1953125 5.0390625 C-2 2 -2 2 0 0 Z " fill="#59C7D3" transform="translate(191,157)"/>
<path d="M0 0 C0.66 0.33 1.32 0.66 2 1 C0.44499019 4.81684226 -2.03595495 7.19195732 -5 10 C-5.66 9.67 -6.32 9.34 -7 9 C-6.67 8.34 -6.34 7.68 -6 7 C-6.66 6.67 -7.32 6.34 -8 6 C-7.05125 5.38125 -6.1025 4.7625 -5.125 4.125 C-2.05554891 2.18029031 -2.05554891 2.18029031 0 0 Z " fill="#57C5D5" transform="translate(118,150)"/>
<path d="M0 0 C1.2631363 3.58595072 0.72375723 5.95278881 -0.3125 9.5625 C-0.57675781 10.51253906 -0.84101563 11.46257812 -1.11328125 12.44140625 C-2 15 -2 15 -4 18 C-4.04254356 16.00045254 -4.04080783 13.99958364 -4 12 C-3.67 11.67 -3.34 11.34 -3 11 C-2.855625 9.906875 -2.71125 8.81375 -2.5625 7.6875 C-2.08526936 4.55898801 -1.59539315 2.65898859 0 0 Z " fill="#5AB5BF" transform="translate(183,195)"/>
<path d="M0 0 C1.65 0.33 3.3 0.66 5 1 C3.3619751 4.51005335 1.96865509 7.45543849 -1 10 C-1 6.49064814 -0.62457273 3.43515002 0 0 Z " fill="#3D8998" transform="translate(580,202)"/>
<path d="M0 0 C3.625 0.375 3.625 0.375 7 1 C5.875 3 5.875 3 4 5 C0.8125 5.25 0.8125 5.25 -2 5 C-2 2 -2 2 0 0 Z " fill="#28B7C6" transform="translate(139,171)"/>
<path d="M0 0 C-3.00950123 1.61725534 -5.97103608 2.67582623 -9.25 3.625 C-10.14203125 3.88539063 -11.0340625 4.14578125 -11.953125 4.4140625 C-12.62859375 4.60742188 -13.3040625 4.80078125 -14 5 C-14.66 4.34 -15.32 3.68 -16 3 C-15.01 3 -14.02 3 -13 3 C-13 2.34 -13 1.68 -13 1 C-8.62426048 0.40667939 -4.42471556 -0.13827236 0 0 Z " fill="#4EC0CC" transform="translate(116,142)"/>
<path d="M0 0 C1.98 0 3.96 0 6 0 C6 5.28 6 10.56 6 16 C4.68 15.34 3.36 14.68 2 14 C2.66 13.67 3.32 13.34 4 13 C4 9.37 4 5.74 4 2 C2.68 1.34 1.36 0.68 0 0 Z " fill="#077085" transform="translate(327,155)"/>
<path d="M0 0 C0.33 0 0.66 0 1 0 C1.33 2.64 1.66 5.28 2 8 C2.66 8 3.32 8 4 8 C4.33 10.64 4.66 13.28 5 16 C4.34 15.67 3.68 15.34 3 15 C3 13.68 3 12.36 3 11 C2.01 10.67 1.02 10.34 0 10 C0 6.7 0 3.4 0 0 Z " fill="#35B7C6" transform="translate(108,235)"/>
<path d="M0 0 C0.66 0 1.32 0 2 0 C6 6.75 6 6.75 6 9 C6.66 9.33 7.32 9.66 8 10 C7.01 10 6.02 10 5 10 C3.61328125 8.57421875 3.61328125 8.57421875 2.3125 6.6875 C1.87550781 6.07261719 1.43851562 5.45773438 0.98828125 4.82421875 C0 3 0 3 0 0 Z " fill="#4D929D" transform="translate(469,229)"/>
<path d="M0 0 C0.66 0 1.32 0 2 0 C0.28571429 8.57142857 0.28571429 8.57142857 -4 12 C-4.66 11.67 -5.32 11.34 -6 11 C-5.38125 10.113125 -4.7625 9.22625 -4.125 8.3125 C-2.34602259 5.53938816 -1.08916398 3.0859646 0 0 Z " fill="#5E9DA9" transform="translate(573,185)"/>
<path d="M0 0 C-2 3 -2 3 -4.1640625 3.73046875 C-5.38222656 3.95669922 -5.38222656 3.95669922 -6.625 4.1875 C-7.85089844 4.42533203 -7.85089844 4.42533203 -9.1015625 4.66796875 C-10.04128906 4.83232422 -10.04128906 4.83232422 -11 5 C-4.74206349 -1.42261905 -4.74206349 -1.42261905 0 0 Z " fill="#4A8C9B" transform="translate(487,182)"/>
<path d="M0 0 C0 0.66 0 1.32 0 2 C-0.99 2 -1.98 2 -3 2 C-3 2.99 -3 3.98 -3 5 C-3.66 5 -4.32 5 -5 5 C-5 5.66 -5 6.32 -5 7 C-6.65 7 -8.3 7 -10 7 C-3.18421053 0 -3.18421053 0 0 0 Z " fill="#50929F" transform="translate(427,179)"/>
<path d="M0 0 C0.99 0.33 1.98 0.66 3 1 C2.67 1.99 2.34 2.98 2 4 C1.93212824 5.49860851 1.91500036 7.00002407 1.9375 8.5 C1.94652344 9.2734375 1.95554687 10.046875 1.96484375 10.84375 C1.97644531 11.5553125 1.98804688 12.266875 2 13 C2 13.99 2 14.98 2 16 C1.34 16.33 0.68 16.66 0 17 C0 11.39 0 5.78 0 0 Z " fill="#8AC0CA" transform="translate(386,180)"/>
<path d="M0 0 C3.63 0 7.26 0 11 0 C10.67 1.32 10.34 2.64 10 4 C8.72125 3.896875 7.4425 3.79375 6.125 3.6875 C5.04605469 3.60048828 5.04605469 3.60048828 3.9453125 3.51171875 C2 3 2 3 0 0 Z " fill="#0C859D" transform="translate(374,179)"/>
<path d="M0 0 C5.57142857 5.14285714 5.57142857 5.14285714 6 9 C5.01 9 4.02 9 3 9 C0.50022457 5.66696609 0 4.26696398 0 0 Z " fill="#3B8294" transform="translate(595,238)"/>
<path d="M0 0 C1.76462683 3.08809695 2 4.23312136 2 8 C1.34 8 0.68 8 0 8 C-0.33 9.32 -0.66 10.64 -1 12 C-1.33 12 -1.66 12 -2 12 C-2.21278058 7.53160785 -1.59138085 4.17737474 0 0 Z " fill="#27B7C6" transform="translate(183,187)"/>
<path d="M0 0 C0.33 0.99 0.66 1.98 1 3 C-2.67807537 4.22602512 -4.88243927 3.70295577 -8.6875 3.0625 C-9.86699219 2.86785156 -11.04648437 2.67320312 -12.26171875 2.47265625 C-13.16535156 2.31667969 -14.06898438 2.16070312 -15 2 C-15 1.67 -15 1.34 -15 1 C-10.05 0.67 -5.1 0.34 0 0 Z " fill="#136779" transform="translate(551,179)"/>
<path d="M0 0 C0.33 0 0.66 0 1 0 C1.33 2.97 1.66 5.94 2 9 C0.02 9 -1.96 9 -4 9 C-3.34 8.67 -2.68 8.34 -2 8 C-1.31527335 6.11235097 -1.31527335 6.11235097 -0.875 3.9375 C-0.70742188 3.20402344 -0.53984375 2.47054687 -0.3671875 1.71484375 C-0.24601562 1.14894531 -0.12484375 0.58304688 0 0 Z " fill="#106F83" transform="translate(386,238)"/>
<path d="M0 0 C3.82669043 3.42388092 5.72278474 6.00724943 7 11 C6.01 10.67 5.02 10.34 4 10 C4 8.68 4 7.36 4 6 C3.01 6 2.02 6 1 6 C0.67 4.02 0.34 2.04 0 0 Z " fill="#6CA2AD" transform="translate(523,187)"/>
<path d="M0 0 C2.96404505 2.80804268 5.44499019 5.18315774 7 9 C4.625 8.75 4.625 8.75 2 8 C-0.09862498 5.10189884 0 3.71621139 0 0 Z " fill="#53919D" transform="translate(552,178)"/>
<path d="M0 0 C3.93673644 1.31224548 6.22719294 2.91910327 9 6 C8.01 6.495 8.01 6.495 7 7 C7 6.34 7 5.68 7 5 C4.03 4.505 4.03 4.505 1 4 C0.67 2.68 0.34 1.36 0 0 Z " fill="#5A94A0" transform="translate(514,181)"/>
<path d="M0 0 C4.22797927 3.08290155 4.22797927 3.08290155 6 5 C6.375 7.8125 6.375 7.8125 6 10 C0 4 0 4 -1 2 C-0.67 1.34 -0.34 0.68 0 0 Z " fill="#4992A1" transform="translate(566,226)"/>
<path d="M0 0 C0.99 0.33 1.98 0.66 3 1 C-0.625 5.875 -0.625 5.875 -4 7 C-3.6875 4.625 -3.6875 4.625 -3 2 C-2.01 1.34 -1.02 0.68 0 0 Z " fill="#4996A3" transform="translate(169,223)"/>
<path d="M0 0 C1.25 1.5625 1.25 1.5625 2 4 C0.93237266 6.57001015 -0.46544943 8.6530403 -2 11 C-3.43088528 8.13822943 -2.59991697 6.06624227 -2 3 C-1.34 3 -0.68 3 0 3 C0 2.01 0 1.02 0 0 Z " fill="#51BDC9" transform="translate(115,200)"/>
<path d="M0 0 C0.33 0 0.66 0 1 0 C1.16682272 4.92127034 1.24828052 8.50343896 -1 13 C-1.33 13 -1.66 13 -2 13 C-2.19294408 8.17639811 -1.75747614 4.50353262 0 0 Z " fill="#3DB7C4" transform="translate(44,157)"/>
<path d="M0 0 C0.165 0.639375 0.33 1.27875 0.5 1.9375 C1.781786 4.16119241 1.781786 4.16119241 3.9140625 4.48828125 C5.93575155 4.7275978 7.96841939 4.86893028 10 5 C10 5.33 10 5.66 10 6 C6.04 6 2.08 6 -2 6 C-1.34 4.02 -0.68 2.04 0 0 Z " fill="#0E6C81" transform="translate(535,241)"/>
<path d="M0 0 C-2.3129482 2.3129482 -3.47904875 2.49580975 -6.625 3.125 C-7.44226563 3.29257813 -8.25953125 3.46015625 -9.1015625 3.6328125 C-10.04128906 3.81457031 -10.04128906 3.81457031 -11 4 C-11 3.34 -11 2.68 -11 2 C-7.17679443 0.57741188 -4.08718695 -0.24042276 0 0 Z " fill="#61B1BE" transform="translate(155,237)"/>
<path d="M0 0 C0.33 0.99 0.66 1.98 1 3 C-0.25 5.1875 -0.25 5.1875 -2 7 C-2.99 7 -3.98 7 -5 7 C-3.75023244 3.34683329 -3.32901247 2.21934164 0 0 Z " fill="#2AAFC7" transform="translate(123,147)"/>
<path d="M0 0 C0.99 0 1.98 0 3 0 C3 0.66 3 1.32 3 2 C3.66 2 4.32 2 5 2 C5 2.66 5 3.32 5 4 C5.66 4 6.32 4 7 4 C6.67 4.99 6.34 5.98 6 7 C1.125 3.375 1.125 3.375 0 0 Z " fill="#53C2D0" transform="translate(52,259)"/>
<path d="M0 0 C2 1.625 2 1.625 4 4 C4.25 7.25 4.25 7.25 4 10 C3.34 9.67 2.68 9.34 2 9 C2 7.68 2 6.36 2 5 C1.34 5 0.68 5 0 5 C0 3.35 0 1.7 0 0 Z " fill="#14AEC2" transform="translate(40,230)"/>
<path d="M0 0 C0.33 0.99 0.66 1.98 1 3 C-1.97 4.32 -4.94 5.64 -8 7 C-7.67 6.01 -7.34 5.02 -7 4 C-6.01 4 -5.02 4 -4 4 C-4 3.34 -4 2.68 -4 2 C-2.68 1.34 -1.36 0.68 0 0 Z " fill="#13889B" transform="translate(149,202)"/>
<path d="M0 0 C2.64 0.33 5.28 0.66 8 1 C5.23776722 3.76223278 2.79293383 3.57856291 -1 4 C-0.67 2.68 -0.34 1.36 0 0 Z " fill="#369BA7" transform="translate(153,233)"/>
<path d="M0 0 C0.99 0.33 1.98 0.66 3 1 C2.67 2.32 2.34 3.64 2 5 C0.35 4.67 -1.3 4.34 -3 4 C-3 3.34 -3 2.68 -3 2 C-2.01 1.34 -1.02 0.68 0 0 Z " fill="#4F939E" transform="translate(516,226)"/>
<path d="M0 0 C0.99 0.495 0.99 0.495 2 1 C3.1577506 4.47325181 3.06866652 7.36067448 3 11 C0.43383368 7.15075052 0.44902324 4.5650696 0 0 Z " fill="#61C6CE" transform="translate(37,224)"/>
<path d="M0 0 C1.875 0.5 1.875 0.5 4 2 C4.98494554 4.65177645 5.45912382 7.20547307 6 10 C3.38275905 7.63202009 1.67138271 5.10399646 0 2 C0 1.34 0 0.68 0 0 Z " fill="#589DB3" transform="translate(541,193)"/>
<path d="M0 0 C0.99 0.33 1.98 0.66 3 1 C1.7260411 3.03833424 0.38938077 5.03852126 -1 7 C-1.66 7 -2.32 7 -3 7 C-2.25 2.25 -2.25 2.25 0 0 Z " fill="#44879C" transform="translate(595,185)"/>
<path d="M0 0 C0 0.66 0 1.32 0 2 C-4.455 2.495 -4.455 2.495 -9 3 C-9 2.34 -9 1.68 -9 1 C-6.04335481 -0.4783226 -3.25770263 -0.06032783 0 0 Z " fill="#43A0A7" transform="translate(586,179)"/>
<path d="M0 0 C2.97 0.495 2.97 0.495 6 1 C4.3545622 2.68762851 2.68711423 4.3540349 1 6 C0.67 6 0.34 6 0 6 C0 4.02 0 2.04 0 0 Z " fill="#61C7CF" transform="translate(83,156)"/>
<path d="M0 0 C0.99 0 1.98 0 3 0 C3.33 1.98 3.66 3.96 4 6 C2.02 4.68 0.04 3.36 -2 2 C-1.34 1.34 -0.68 0.68 0 0 Z " fill="#4CC3CF" transform="translate(61,267)"/>
<path d="M0 0 C2.17854707 3.2678206 3.49760034 6.38058265 5 10 C3.0625 9.5 3.0625 9.5 1 8 C0.31209578 5.30341548 0.18053536 2.7982981 0 0 Z " fill="#61C7CE" transform="translate(114,252)"/>
<path d="M0 0 C0.99 0.33 1.98 0.66 3 1 C2.67 1.66 2.34 2.32 2 3 C1.34 3 0.68 3 0 3 C-0.66 4.65 -1.32 6.3 -2 8 C-2.66 7.01 -3.32 6.02 -4 5 C-2.68 3.35 -1.36 1.7 0 0 Z " fill="#46929E" transform="translate(539,235)"/>
<path d="M0 0 C0.66 0.33 1.32 0.66 2 1 C2 2.65 2 4.3 2 6 C0.68 5.34 -0.64 4.68 -2 4 C-2 3.01 -2 2.02 -2 1 C-1.34 0.67 -0.68 0.34 0 0 Z " fill="#1DB7C7" transform="translate(76,231)"/>
<path d="M0 0 C2.72426311 2.35277269 3.8141763 4.62496331 5 8 C4.01 8.33 3.02 8.66 2 9 C0.50178941 5.62902617 0 3.79557881 0 0 Z " fill="#4B93A0" transform="translate(559,187)"/>
<path d="M0 0 C1.40742022 2.81484045 0.66652164 4.56936113 0.0625 7.625 C-0.13214844 8.62789062 -0.32679687 9.63078125 -0.52734375 10.6640625 C-0.68332031 11.43492187 -0.83929688 12.20578125 -1 13 C-1.33 13 -1.66 13 -2 13 C-3.45295405 4.80743982 -3.45295405 4.80743982 -1.5625 1.4375 C-1.046875 0.963125 -0.53125 0.48875 0 0 Z " fill="#0AAFC7" transform="translate(68,186)"/>
<path d="M0 0 C0.33 0.99 0.66 1.98 1 3 C0.0409375 3.433125 0.0409375 3.433125 -0.9375 3.875 C-3.15206079 4.82823451 -3.15206079 4.82823451 -4 7 C-4.66 6.67 -5.32 6.34 -6 6 C-4.95125002 3.37812506 -4.35068687 2.20628639 -1.875 0.75 C-1.25625 0.5025 -0.6375 0.255 0 0 Z " fill="#16707E" transform="translate(479,185)"/>
<path d="M0 0 C0 3.10551666 -0.5393715 4.35261084 -2 7 C-3.32 6.67 -4.64 6.34 -6 6 C-4.02 4.02 -2.04 2.04 0 0 Z " fill="#67C7D1" transform="translate(109,157)"/>
<path d="M0 0 C0.33 0.66 0.66 1.32 1 2 C0.0625 4.125 0.0625 4.125 -1 6 C-2.65 5.67 -4.3 5.34 -6 5 C-5.67 4.34 -5.34 3.68 -5 3 C-3.68 3 -2.36 3 -1 3 C-0.67 2.01 -0.34 1.02 0 0 Z " fill="#147082" transform="translate(570,194)"/>
</svg>
